<?xml version="1.0" standalone="no"?>
<!DOCTYPE svg PUBLIC "-//W3C//DTD SVG 20010904//EN"
 "http://www.w3.org/TR/2001/REC-SVG-20010904/DTD/svg10.dtd">
<svg version="1.0" xmlns="http://www.w3.org/2000/svg"
 width="1200.000000pt" height="1030.000000pt" viewBox="0 0 1200.000000 1030.000000"
 preserveAspectRatio="xMidYMid meet">

<g transform="translate(0.000000,1030.000000) scale(0.100000,-0.100000)"
fill="#000000" stroke="none">
<path d="M4510 10115 c-332 -75 -545 -407 -475 -739 47 -222 234 -414 460
-471 75 -19 212 -19 294 0 100 24 214 89 291 165 155 155 215 379 160 595 -53
207 -217 375 -430 439 -78 24 -220 29 -300 11z"/>
<path d="M3933 4075 c-163 -46 -247 -149 -247 -306 0 -63 5 -86 28 -132 38
-78 113 -144 232 -201 184 -89 224 -124 224 -198 0 -72 -54 -108 -162 -108
-86 0 -166 18 -265 58 l-73 30 0 -114 0 -113 83 -27 c62 -20 111 -27 197 -31
134 -6 203 5 289 48 112 56 165 144 165 274 0 159 -56 227 -284 345 -153 80
-186 104 -196 146 -10 41 7 94 39 118 44 33 167 29 275 -8 46 -15 85 -26 87
-24 12 12 74 171 70 179 -3 4 -49 22 -103 40 -118 38 -273 49 -359 24z"/>
<path d="M9412 4070 c-170 -45 -270 -140 -334 -320 -30 -80 -37 -319 -14 -424
24 -106 75 -202 139 -263 95 -90 180 -122 347 -130 97 -5 129 -2 200 16 245
62 370 251 370 561 0 196 -49 341 -150 441 -31 31 -75 66 -99 78 -118 61 -316
78 -459 41z m281 -196 c59 -20 117 -83 148 -160 20 -52 23 -75 23 -204 0 -128
-3 -152 -23 -203 -44 -112 -117 -166 -232 -175 -101 -7 -166 16 -222 78 -68
76 -82 126 -82 300 0 182 14 231 89 305 28 28 67 56 86 62 52 16 160 15 213
-3z"/>
<path d="M1930 3505 l0 -566 118 3 117 3 3 563 2 562 -120 0 -120 0 0 -565z"/>
<path d="M2450 3505 l0 -565 112 0 111 0 -7 398 c-3 218 -9 413 -12 432 -4 23
-3 32 4 25 5 -5 119 -200 253 -433 l242 -423 151 3 151 3 3 563 2 562 -111 0
-112 0 5 -420 c3 -316 1 -415 -7 -402 -6 9 -116 198 -244 420 l-233 402 -154
0 -154 0 0 -565z"/>
<path d="M4502 3973 l3 -98 153 -3 152 -3 0 -464 0 -465 120 0 120 0 0 465 0
464 153 3 152 3 3 98 3 97 -431 0 -431 0 3 -97z"/>
<path d="M5530 3505 l0 -565 120 0 120 0 0 565 0 565 -120 0 -120 0 0 -565z"/>
<path d="M5950 3970 l0 -100 155 0 155 0 0 -465 0 -466 118 3 117 3 3 463 2
462 150 0 150 0 0 100 0 100 -425 0 -425 0 0 -100z"/>
<path d="M6972 3653 c3 -409 4 -419 26 -475 14 -33 45 -82 74 -114 86 -93 194
-134 358 -134 202 0 346 71 417 207 49 93 53 131 53 548 l0 385 -119 0 -120 0
-3 -397 c-3 -385 -4 -399 -24 -438 -40 -74 -96 -104 -194 -105 -79 0 -129 17
-171 59 -55 55 -59 89 -59 511 l0 370 -121 0 -120 0 3 -417z"/>
<path d="M8070 3970 l0 -100 150 0 150 0 0 -465 0 -465 120 0 120 0 0 465 0
465 155 0 155 0 0 100 0 100 -425 0 -425 0 0 -100z"/>
<path d="M2720 2150 l0 -570 115 0 115 0 0 225 0 225 193 2 192 3 0 95 0 95
-192 3 -193 2 0 145 0 145 205 0 205 0 0 100 0 100 -320 0 -320 0 0 -570z"/>
<path d="M3590 2150 l0 -570 323 2 322 3 3 98 3 97 -206 0 -205 0 0 145 0 145
188 2 187 3 3 98 3 97 -191 0 -190 0 0 125 0 125 205 0 206 0 -3 98 -3 97
-322 3 -323 2 0 -570z"/>
<path d="M4475 2709 c-3 -8 -4 -264 -3 -569 l3 -555 125 -3 c256 -6 436 20
555 80 65 34 159 132 194 203 85 172 81 443 -9 599 -61 108 -187 198 -322 232
-90 22 -535 33 -543 13z m465 -200 c82 -18 139 -63 180 -143 l35 -69 0 -141
c0 -131 -2 -145 -26 -197 -57 -120 -147 -170 -314 -172 l-100 -2 -3 368 -2
367 89 0 c50 0 113 -5 141 -11z"/>
<path d="M5650 2150 l0 -570 323 2 322 3 3 98 3 97 -206 0 -205 0 0 145 0 145
190 0 190 0 0 100 0 100 -190 0 -190 0 0 125 0 125 205 0 205 0 0 100 0 100
-325 0 -325 0 0 -570z"/>
<path d="M6540 2150 l0 -571 118 3 117 3 3 218 2 217 63 0 62 -1 120 -196 c66
-107 128 -206 138 -219 18 -23 24 -24 143 -24 68 0 124 4 124 9 0 5 -65 105
-143 222 -79 118 -152 226 -161 240 l-17 27 43 25 c60 35 113 93 140 152 17
39 22 68 22 131 0 72 -4 90 -33 148 -71 145 -196 185 -573 186 l-168 0 0 -570z
m412 359 c37 -8 63 -22 85 -44 30 -30 33 -39 33 -89 0 -32 -7 -70 -15 -85 -22
-43 -86 -69 -187 -77 l-88 -7 0 157 0 156 60 0 c32 0 83 -5 112 -11z"/>
<path d="M7835 2708 c-14 -36 -395 -1121 -395 -1124 0 -2 56 -4 124 -4 88 0
127 4 132 12 5 7 24 67 44 133 l37 120 208 0 209 0 41 -130 41 -130 127 -3
c70 -1 127 1 127 5 0 4 -89 260 -198 568 l-198 560 -147 3 c-112 2 -149 0
-152 -10z m225 -412 c39 -125 69 -230 67 -232 -2 -3 -67 -3 -143 -2 l-140 3
71 237 c38 130 71 234 72 230 2 -4 34 -110 73 -236z"/>
<path d="M8675 2708 c-3 -7 -4 -263 -3 -568 l3 -555 348 -3 347 -2 0 100 0
100 -227 2 -228 3 -3 468 -2 467 -115 0 c-83 0 -117 -4 -120 -12z"/>
<path d="M4079 1135 c-29 -16 -46 -48 -55 -105 l-7 -40 37 0 c32 0 36 3 36 26
0 35 17 64 38 64 10 0 31 -14 48 -31 93 -98 189 -70 210 60 l7 41 -37 0 c-32
0 -36 -3 -36 -26 0 -35 -17 -64 -38 -64 -10 0 -31 14 -48 31 -54 57 -104 72
-155 44z"/>
<path d="M7950 680 l0 -450 55 0 55 0 0 450 0 450 -55 0 -55 0 0 -450z"/>
<path d="M3367 1106 c-179 -48 -250 -263 -127 -386 41 -41 109 -66 275 -104
81 -19 113 -39 137 -87 25 -47 23 -99 -5 -140 -62 -93 -241 -104 -414 -24
l-53 24 0 -60 c0 -56 2 -60 28 -70 154 -59 347 -63 452 -9 90 46 136 135 128
244 -13 152 -84 207 -343 261 -100 22 -145 59 -145 123 0 123 145 172 353 118
l87 -22 0 53 0 52 -41 11 c-117 32 -249 38 -332 16z"/>
<path d="M5810 666 l0 -436 60 0 60 0 0 174 0 174 128 4 c144 5 193 20 250 79
84 87 82 277 -5 361 -66 65 -95 72 -305 76 l-188 4 0 -436z m360 312 c53 -28
80 -75 80 -138 0 -63 -27 -110 -80 -137 -37 -19 -60 -23 -142 -23 l-98 0 0
160 0 160 98 0 c82 0 105 -4 142 -22z"/>
<path d="M4110 893 c-14 -2 -49 -11 -77 -19 l-53 -15 0 -48 0 -49 53 21 c74
29 218 30 265 2 37 -22 72 -80 72 -118 l0 -25 -133 -4 c-121 -3 -138 -6 -190
-32 -72 -35 -106 -82 -114 -157 -16 -155 87 -252 249 -235 69 7 134 40 167 83
l20 28 1 -47 0 -48 55 0 55 0 0 217 c0 260 -10 312 -74 379 -60 62 -173 88
-296 67z m256 -395 c-12 -118 -90 -198 -192 -198 -47 0 -102 32 -121 70 -32
63 -1 150 59 168 56 18 70 20 167 21 l94 1 -7 -62z"/>
<path d="M4850 880 c-70 -24 -140 -96 -167 -172 -25 -74 -25 -233 1 -307 27
-78 103 -154 175 -175 122 -36 229 -12 307 68 69 71 89 129 89 261 0 132 -20
190 -89 261 -39 40 -64 56 -105 68 -72 21 -143 20 -211 -4z m186 -89 c76 -35
109 -107 109 -241 0 -83 -3 -102 -26 -145 -70 -137 -247 -140 -316 -4 -30 56
-40 164 -24 239 30 138 141 203 257 151z"/>
<path d="M6610 893 c-14 -2 -49 -11 -77 -19 l-53 -15 0 -48 0 -49 53 21 c74
29 218 30 265 2 37 -22 72 -80 72 -118 l0 -25 -133 -4 c-121 -3 -138 -6 -190
-32 -72 -35 -106 -82 -114 -157 -16 -155 87 -252 249 -235 69 7 134 40 167 83
l20 28 1 -47 0 -48 55 0 55 0 0 217 c0 260 -10 312 -74 379 -60 62 -173 88
-296 67z m256 -395 c-12 -118 -90 -198 -192 -198 -47 0 -102 32 -121 70 -32
63 -1 150 59 168 56 18 70 20 167 21 l94 1 -7 -62z"/>
<path d="M8430 880 c-70 -24 -140 -96 -167 -172 -25 -74 -25 -233 1 -307 27
-78 103 -154 175 -175 122 -36 229 -12 307 68 69 71 89 129 89 261 0 132 -20
190 -89 261 -39 40 -64 56 -105 68 -72 21 -143 20 -211 -4z m186 -89 c76 -35
109 -107 109 -241 0 -83 -3 -102 -26 -145 -70 -137 -247 -140 -316 -4 -30 56
-40 164 -24 239 30 138 141 203 257 151z"/>
<path d="M7200 652 c0 -173 4 -240 15 -279 34 -114 94 -158 215 -158 85 1 117
14 173 72 l37 37 0 -47 0 -47 55 0 55 0 0 325 0 325 -55 0 -55 0 0 -202 c0
-216 -7 -263 -46 -315 -51 -67 -177 -83 -234 -28 -42 40 -50 91 -50 329 l0
216 -55 0 -55 0 0 -228z"/>
</g>
</svg>
